<?xml version="1.0" encoding="utf-8"?>
<!-- Generator: Adobe Illustrator 28.1.0, SVG Export Plug-In . SVG Version: 6.00 Build 0)  -->
<svg version="1.1" id="Ebene_1" xmlns="http://www.w3.org/2000/svg" xmlns:xlink="http://www.w3.org/1999/xlink" x="0px" y="0px"
	 viewBox="0 0 22.6 22.6" style="enable-background:new 0 0 22.6 22.6;" xml:space="preserve">
<style type="text/css">
	.st0{fill:#FAFAFA;}
</style>
<g>
	<path class="st0" d="M7.8,19.5c-1.1-0.5-2-1.1-2.8-1.9s-1.5-1.7-1.9-2.8s-0.7-2.3-0.7-3.4S2.5,8.9,3,7.9s1.1-2,1.9-2.8
		s1.7-1.5,2.8-1.9s2.3-0.7,3.4-0.7s2.3,0.2,3.4,0.7s2,1.1,2.8,1.9s1.5,1.7,1.9,2.8c0.5,1.1,0.7,2.3,0.7,3.4s-0.2,2.3-0.7,3.4
		c-0.5,1.1-1.1,2-1.9,2.8c-0.8,0.9-1.7,1.5-2.8,1.9c-1.1,0.5-2.3,0.7-3.4,0.7S8.9,20,7.8,19.5z M10.7,15.5c0.1-0.1,0.2-0.2,0.3-0.3
		l4.2-6.5c0-0.1,0.1-0.2,0.2-0.2c0-0.2,0-0.2,0-0.3c0-0.2-0.1-0.3-0.2-0.5c-0.2-0.1-0.3-0.2-0.5-0.2c-0.2,0-0.5,0.2-0.6,0.4l-3.7,6
		l-1.7-2.3c-0.1-0.2-0.2-0.2-0.3-0.2c-0.1,0-0.2-0.2-0.4-0.2c-0.2,0-0.3,0.1-0.5,0.2c-0.2,0.2-0.2,0.3-0.2,0.5c0,0.1,0,0.2,0.1,0.2
		c0,0.1,0.1,0.2,0.2,0.2l2.3,2.7c0.1,0.2,0.2,0.2,0.3,0.3c0.1,0.1,0.2,0.1,0.4,0.1C10.4,15.6,10.6,15.5,10.7,15.5z"/>
</g>
</svg>
