<?xml version="1.0" encoding="utf-8"?>
<!-- Generator: Adobe Illustrator 28.1.0, SVG Export Plug-In . SVG Version: 6.00 Build 0)  -->
<svg version="1.1" id="Ebene_1" xmlns="http://www.w3.org/2000/svg" xmlns:xlink="http://www.w3.org/1999/xlink" x="0px" y="0px"
	 viewBox="0 0 60 60" style="enable-background:new 0 0 60 60;" xml:space="preserve">
<style type="text/css">
	.st0{fill:#FAFAFA;}
</style>
<g>
	<path class="st0" d="M21.5,52.7c-2.7-1.1-5-2.8-7.1-4.8s-3.7-4.4-4.8-7.1c-1.1-2.7-1.7-5.6-1.7-8.5s0.5-6,1.7-8.5s2.8-5,4.8-7.1
		s4.4-3.7,7.1-4.8S27,10,30,10c3.1,0,6,0.5,8.6,1.7c2.7,1.1,5,2.8,7.1,4.8c2.1,2.1,3.7,4.4,4.8,7.1c1.1,2.7,1.7,5.6,1.7,8.5
		c0,3-0.6,5.9-1.7,8.5c-1.1,2.7-2.8,5-4.8,7.1c-2.1,2.1-4.4,3.7-7.1,4.8s-5.6,1.7-8.5,1.7S24,53.9,21.5,52.7z M37.2,49.3
		c2.3-1,4.2-2.3,6-3.9c1.7-1.7,3.1-3.7,3.9-6c1-2.3,1.4-4.6,1.4-7.2s-0.4-4.9-1.4-7.2s-2.3-4.2-3.9-6c-1.6-1.7-3.7-3.1-6-3.9
		c-2.3-1-4.6-1.4-7.2-1.4s-4.9,0.4-7.2,1.4s-4.2,2.3-6,3.9c-1.7,1.6-3.1,3.6-3.9,5.9c-0.9,2.3-1.4,4.6-1.4,7.2s0.4,4.9,1.4,7.2
		c1,2.3,2.3,4.2,3.9,6c1.7,1.7,3.7,3.1,6,3.9c2.3,1,4.6,1.4,7.2,1.4S34.9,50.3,37.2,49.3z M27.5,34.6c-0.7-0.7-1-1.5-1-2.5
		c0-0.7,0.2-1.3,0.5-1.9c0.3-0.5,0.8-1,1.4-1.3V18.2c0-0.4,0.2-0.8,0.4-1c0.3-0.3,0.6-0.4,1-0.4c0.4,0,0.8,0.2,1,0.4
		c0.3,0.3,0.4,0.6,0.4,1v11c0.6,0.3,1,0.7,1.4,1.2s0.5,1.1,0.5,1.9c0,1-0.3,1.7-1,2.5c-0.7,0.7-1.5,1-2.5,1
		C29,35.8,28.2,35.4,27.5,34.6z M27.6,8c0-0.6,0.3-1.2,0.7-1.7c0.4-0.4,1-0.7,1.6-0.7c0.6,0,1.1,0.3,1.6,0.7c0.4,0.4,0.7,1,0.7,1.7
		v3.3h-4.6C27.6,11.3,27.6,8,27.6,8z M46.1,13.6c0.4-0.4,1-0.7,1.7-0.7c0.6,0,1.1,0.2,1.6,0.6c0.5,0.4,0.6,1,0.6,1.5
		c0,0.6-0.3,1.2-0.8,1.7l-2.5,2.5L43.6,16L46.1,13.6z"/>
</g>
</svg>
