<?xml version="1.0" encoding="utf-8"?>
<!-- Generator: Adobe Illustrator 28.1.0, SVG Export Plug-In . SVG Version: 6.00 Build 0)  -->
<svg version="1.1" id="Ebene_1" xmlns="http://www.w3.org/2000/svg" xmlns:xlink="http://www.w3.org/1999/xlink" x="0px" y="0px"
	 viewBox="0 0 22.8 60" style="enable-background:new 0 0 22.8 60;" xml:space="preserve">
<style type="text/css">
	.st0{fill:#FAFAFA;}
</style>
<g>
	<path class="st0" d="M0.2,29.3c0.1-0.2,0.3-0.5,0.5-0.7l18.2-17.9c0.4-0.4,0.9-0.6,1.5-0.6c0.4,0,0.7,0.1,1.1,0.3s0.6,0.4,0.7,0.7
		c0.2,0.3,0.3,0.7,0.3,1.1c0,0.6-0.2,1.1-0.6,1.5L5.2,30.1L22,46.5c0.4,0.4,0.6,1,0.6,1.5c0,0.4-0.1,0.7-0.3,1.1
		c-0.2,0.3-0.4,0.6-0.7,0.7c-0.3,0.2-0.7,0.3-1.1,0.3c-0.6,0-1.1-0.2-1.5-0.6L0.7,31.6c-0.2-0.2-0.4-0.4-0.5-0.7
		c-0.1-0.2-0.1-0.5-0.1-0.8C0,29.8,0.1,29.5,0.2,29.3z"/>
</g>
</svg>
