<?xml version="1.0" encoding="utf-8"?>
<!-- Generator: Adobe Illustrator 28.1.0, SVG Export Plug-In . SVG Version: 6.00 Build 0)  -->
<svg version="1.1" id="Ebene_1" xmlns="http://www.w3.org/2000/svg" xmlns:xlink="http://www.w3.org/1999/xlink" x="0px" y="0px"
	 viewBox="0 0 60 60" style="enable-background:new 0 0 60 60;" xml:space="preserve">
<style type="text/css">
	.st0{fill:#FAFAFA;}
</style>
<g>
	<path class="st0" d="M13.6,31.7L35.8,4c0.4-0.5,0.8-0.8,1.3-1c0.5-0.1,0.9,0,1.3,0.2s0.6,0.5,0.8,1s0.1,1-0.1,1.6l-7.3,19.7h13.8
		c0.5,0,0.9,0.2,1.3,0.5c0.3,0.3,0.5,0.7,0.5,1.2s-0.2,1-0.6,1.6L24.6,56.4c-0.4,0.5-0.8,0.8-1.3,0.9c-0.5,0.1-0.9,0.1-1.3-0.1
		c-0.4-0.2-0.6-0.5-0.8-1c-0.2-0.5-0.1-1,0.1-1.6l7.3-19.7H14.8c-0.5,0-0.9-0.2-1.3-0.5c-0.3-0.3-0.5-0.7-0.5-1.2
		C13,32.7,13.2,32.2,13.6,31.7z"/>
</g>
</svg>
