<?xml version="1.0" encoding="utf-8"?>
<!-- Generator: Adobe Illustrator 28.1.0, SVG Export Plug-In . SVG Version: 6.00 Build 0)  -->
<svg version="1.1" id="Ebene_1" xmlns="http://www.w3.org/2000/svg" xmlns:xlink="http://www.w3.org/1999/xlink" x="0px" y="0px"
	 viewBox="0 0 60 60" style="enable-background:new 0 0 60 60;" xml:space="preserve">
<style type="text/css">
	.st0{fill:#FAFAFA;}
</style>
<g>
	<path class="st0" d="M3.3,31.3C3,31,2.8,30.6,2.8,30.2S3,29.3,3.3,29c0.3-0.3,0.7-0.5,1.1-0.5h15.1c0.4,0,0.8,0.2,1.1,0.5
		c0.3,0.3,0.5,0.7,0.5,1.1S21,31,20.7,31.3s-0.7,0.5-1.1,0.5H4.4C4,31.8,3.6,31.6,3.3,31.3z M21.8,49.7c-2.6-1.1-4.8-2.6-6.7-4.6
		s-3.5-4.2-4.6-6.8s-1.6-5.3-1.6-8.2s0.5-5.6,1.6-8.2s2.6-4.8,4.6-6.8s4.2-3.5,6.7-4.6S27.1,9,30,9s5.6,0.5,8.2,1.6
		c2.6,1.1,4.8,2.6,6.7,4.6s3.5,4.2,4.6,6.8c1.1,2.6,1.6,5.3,1.6,8.2s-0.5,5.6-1.6,8.2c-1.1,2.6-2.6,4.8-4.6,6.8s-4.2,3.5-6.7,4.6
		c-2.6,1.1-5.3,1.6-8.2,1.6S24.4,50.8,21.8,49.7z M36.8,46.3c2.1-0.9,3.9-2.1,5.5-3.7c1.6-1.6,2.8-3.5,3.7-5.6
		c0.9-2.1,1.3-4.4,1.3-6.9s-0.4-4.7-1.3-6.8s-2.1-4-3.7-5.6c-1.6-1.6-3.4-2.9-5.5-3.7c-2.1-0.9-4.4-1.3-6.8-1.3s-4.7,0.4-6.8,1.3
		s-3.9,2.1-5.5,3.7c-1.6,1.6-2.8,3.5-3.7,5.6c-0.9,2.1-1.3,4.4-1.3,6.8s0.4,4.7,1.3,6.9c0.9,2.1,2.1,4,3.7,5.6
		c1.6,1.6,3.4,2.8,5.5,3.7s4.4,1.3,6.8,1.3S34.7,47.2,36.8,46.3z M28.9,20.9c-0.3-0.3-0.5-0.7-0.5-1.1V4.6c0-0.4,0.2-0.8,0.5-1.1
		C29.2,3.1,29.6,3,30,3s0.8,0.2,1.1,0.5s0.5,0.7,0.5,1.1v15.1c0,0.4-0.2,0.8-0.5,1.1s-0.7,0.5-1.1,0.5S29.2,21.2,28.9,20.9z
		 M28.9,56.9c-0.3-0.3-0.5-0.7-0.5-1.1V40.6c0-0.4,0.2-0.8,0.5-1.1c0.3-0.3,0.7-0.5,1.1-0.5s0.8,0.2,1.1,0.5s0.5,0.7,0.5,1.1v15.1
		c0,0.4-0.2,0.8-0.5,1.1s-0.7,0.5-1.1,0.5S29.2,57.2,28.9,56.9z M39.3,31.3c-0.3-0.3-0.5-0.7-0.5-1.1s0.2-0.8,0.5-1.1
		c0.3-0.3,0.7-0.5,1.1-0.5h15.1c0.4,0,0.8,0.2,1.1,0.5c0.3,0.3,0.5,0.7,0.5,1.1S57,31,56.7,31.3c-0.3,0.3-0.7,0.5-1.1,0.5H40.4
		C40,31.8,39.6,31.6,39.3,31.3z"/>
</g>
</svg>
